<svg width="109" height="109" viewBox="0 0 109 109" fill="none" xmlns="http://www.w3.org/2000/svg">
<g clip-path="url(#clip0_681_2087)">
<path d="M54.4807 38.459C54.6637 38.4102 54.8255 38.4802 54.9841 38.5593C55.8112 38.9754 58.0435 45.7032 58.9097 47.1618C61.3848 51.3218 65.7448 51.2824 69.4154 53.4459C69.9998 53.7894 70.8416 54.1508 70.2515 54.9712C69.8229 55.567 64.3751 57.5176 63.2337 58.0828C57.4293 60.9636 58.571 64.3245 55.8773 69.0709C55.3408 70.016 54.6515 71.0826 53.8306 69.7484C52.0715 66.8953 51.8528 62.7565 49.24 60.1493C46.6209 57.5329 42.4618 57.293 39.693 55.4088C39.3334 55.1659 38.9799 54.9136 38.8721 54.4549C38.9289 54.1781 39.0936 53.9502 39.3216 53.7923C41.0055 52.6437 44.4784 51.6773 46.4802 50.6563C48.5267 49.6141 49.5065 48.6872 50.6424 46.6575C51.3106 45.4633 53.8036 38.6322 54.4749 38.459H54.4807Z" fill="white"/>
<path d="M54.6377 21.8473C36.9403 21.8473 22.542 36.4482 22.542 54.3949C22.542 60.1441 24.0193 65.55 26.6113 70.2417C27.9147 67.6709 30.2041 65.7021 32.9729 64.8389C31.4806 61.6727 30.6446 58.1294 30.6446 54.3917C30.6446 40.9761 41.4081 30.0639 54.6345 30.0639C56.9808 30.0639 59.2523 30.4074 61.3976 31.0455C62.0869 28.0979 63.9658 25.6153 66.4887 24.1476C62.818 22.6616 58.8176 21.8442 54.6345 21.8442L54.6377 21.8473ZM81.8729 37.1896C80.884 40.0127 78.7714 42.2976 76.0835 43.4889C77.7136 46.7708 78.6305 50.4749 78.6305 54.3949C78.6305 67.8109 67.8673 78.7227 54.6406 78.7227C51.8239 78.7227 49.1151 78.2275 46.6009 77.3188C46.0317 80.2301 44.3147 82.7218 41.9475 84.2866C45.8429 85.9946 50.1339 86.9424 54.6406 86.9424C72.338 86.9424 86.7363 72.3416 86.7363 54.3949C86.7363 48.0835 84.9563 42.1883 81.8729 37.1896Z" fill="white"/>
<path d="M42.7513 75.1288C42.7513 75.2565 42.7484 75.3841 42.7394 75.5117C42.5597 78.6748 40.1803 81.2364 37.127 81.6528C36.8422 81.6922 36.5517 81.7105 36.2579 81.7105C32.6713 81.7105 29.7676 78.763 29.7676 75.1288C29.7676 75.0618 29.7676 74.995 29.7706 74.9283C29.8635 71.7435 32.1859 69.1303 35.2093 68.6319C35.5509 68.5742 35.9015 68.5469 36.2579 68.5469C39.8419 68.5469 42.7513 71.4944 42.7513 75.1288Z" fill="white"/>
<path d="M78.2942 33.5681C78.2942 36.4853 76.4244 38.9587 73.8354 39.8218C73.1971 40.0345 72.5139 40.15 71.804 40.15C68.2171 40.15 65.3135 37.2022 65.3135 33.5681C65.3135 33.2552 65.3344 32.9482 65.3764 32.6503C65.8169 29.4505 68.5257 26.9893 71.804 26.9893C71.8429 26.9893 71.8817 26.9893 71.9209 26.9893C75.0252 27.044 77.5991 29.3078 78.1745 32.298C78.2525 32.7112 78.2942 33.1334 78.2942 33.5681Z" fill="white"/>
<path d="M97.002 20.9909C96.0433 23.741 94.0174 25.9774 91.4345 27.199C96.939 34.8351 100.193 44.2402 100.193 54.4016C100.193 79.8689 79.7633 100.587 54.6494 100.587C46.2322 100.587 38.3424 98.2594 31.5703 94.2056C30.8033 97.0072 28.9604 99.3501 26.5152 100.748C34.8875 105.996 44.5543 108.804 54.6465 108.804C68.9757 108.804 82.448 103.145 92.5822 92.8684C102.713 82.5947 108.296 68.9326 108.296 54.3984C108.296 42.1402 104.326 30.499 96.9991 20.9879L97.002 20.9909ZM54.6494 8.21618C62.665 8.21618 70.2044 10.3281 76.7547 14.0323C77.6417 11.2488 79.6105 8.95763 82.1574 7.66921C73.929 2.67053 64.4931 -0.000488281 54.6494 -0.000488281C40.3202 -0.000488281 26.8479 5.6576 16.7137 15.9345C6.58249 26.2084 1 39.8705 1 54.4045C1 66.2374 4.70069 77.4896 11.5417 86.8093C12.7133 84.2021 14.8738 82.1509 17.5377 81.1481C12.2279 73.5972 9.10255 64.3624 9.10255 54.4045C9.10255 28.9371 29.5327 8.21921 54.6465 8.21921L54.6494 8.21618Z" fill="white"/>
<path d="M28.0825 91.3848C28.0825 91.5518 28.0766 91.7188 28.0646 91.8829C27.8518 94.9584 25.6973 97.4894 22.8327 98.2217C22.2873 98.3617 21.715 98.4346 21.1277 98.4346C17.2861 98.4346 14.1758 95.2774 14.1758 91.3848C14.1758 90.9928 14.2057 90.607 14.2687 90.2299C14.7541 87.2369 17.0974 84.8819 20.0549 84.417C20.4025 84.3623 20.7621 84.335 21.1277 84.335C24.9692 84.335 28.0796 87.4921 28.0796 91.3848H28.0825Z" fill="white"/>
<path d="M93.8696 17.2887V17.3677C93.8696 20.531 91.8168 23.2081 88.9853 24.1014C88.332 24.3081 87.6369 24.4175 86.9177 24.4175C83.0762 24.4175 79.9658 21.2602 79.9658 17.3677C79.9658 16.9362 80.0047 16.5168 80.0795 16.1066C80.6189 13.0618 83.0881 10.6977 86.1594 10.3604C86.4082 10.333 86.6628 10.3179 86.9177 10.3179C90.7322 10.3179 93.8276 13.4295 93.8696 17.2887Z" fill="white"/>
</g>
<defs>
<clipPath id="clip0_681_2087">
<rect width="109" height="109" fill="white"/>
</clipPath>
</defs>
</svg>
