<?xml version="1.0" encoding="UTF-8"?>
<svg id="Layer_1" data-name="Layer 1" xmlns="http://www.w3.org/2000/svg" viewBox="0 0 1920 1080">
  <defs>
    <style>
      .cls-1 {
        fill: #fff;
      }

      .cls-2 {
        fill: #00bf53;
      }
    </style>
  </defs>
  <rect class="cls-1" width="1920" height="1080"/>
  <g>
    <g>
      <path class="cls-2" d="M1056.87,407.65l-84.46,260.45h-78.88l-49.86-158.5-52.09,158.5h-78.88l-84.46-260.45h75.9l52.46,166.32,55.07-166.32h67.72l52.46,167.8,54.69-167.8h70.32Z"/>
      <path class="cls-2" d="M1253.31,585.13h-146.6c5.95,20.46,23.44,32.37,49.49,32.37,19.72,0,32.74-5.58,46.51-17.49l37.21,38.7c-19.35,21.58-47.62,32.74-85.95,32.74-71.81,0-118.32-44.28-118.32-104.55s47.25-103.81,110.88-103.81c59.53,0,107.9,37.95,107.9,104.55,0,5.21-.74,11.91-1.12,17.49ZM1105.6,547.92h82.6c-3.72-21.21-19.35-34.6-41.3-34.6s-37.21,13.39-41.3,34.6Z"/>
      <path class="cls-2" d="M1312.83,407.65h73.67v202.03h124.27v58.42h-197.94v-260.45Z"/>
      <path class="cls-2" d="M1726.57,585.13h-146.6c5.95,20.46,23.44,32.37,49.49,32.37,19.72,0,32.74-5.58,46.51-17.49l37.21,38.7c-19.35,21.58-47.62,32.74-85.95,32.74-71.81,0-118.32-44.28-118.32-104.55s47.25-103.81,110.88-103.81c59.53,0,107.9,37.95,107.9,104.55,0,5.21-.74,11.91-1.12,17.49ZM1578.86,547.92h82.6c-3.72-21.21-19.35-34.6-41.3-34.6s-37.21,13.39-41.3,34.6Z"/>
    </g>
    <g>
      <path class="cls-2" d="M360.96,486.77c.61-.16,1.15.07,1.68.33,2.76,1.37,10.21,23.51,13.1,28.31,8.26,13.69,22.81,13.56,35.06,20.68,1.95,1.13,4.76,2.32,2.79,5.02-1.43,1.96-19.61,8.38-23.42,10.24-19.37,9.48-15.56,20.54-24.55,36.16-1.79,3.11-4.09,6.62-6.83,2.23-5.87-9.39-6.6-23.01-15.32-31.59-8.74-8.61-22.62-9.4-31.86-15.6-1.2-.8-2.38-1.63-2.74-3.14.19-.91.74-1.66,1.5-2.18,5.62-3.78,17.21-6.96,23.89-10.32,6.83-3.43,10.1-6.48,13.89-13.16,2.23-3.93,10.55-26.41,12.79-26.98Z"/>
      <g>
        <path class="cls-2" d="M361.57,432.15c-59.06,0-107.11,48.05-107.11,107.11,0,18.92,4.93,36.71,13.58,52.15,4.35-8.46,11.99-14.94,21.23-17.78-4.98-10.42-7.77-22.08-7.77-34.38,0-44.15,35.92-80.06,80.06-80.06,7.83,0,15.41,1.13,22.57,3.23,2.3-9.7,8.57-17.87,16.99-22.7-12.25-4.89-25.6-7.58-39.56-7.58ZM452.46,482.64c-3.3,9.29-10.35,16.81-19.32,20.73,5.44,10.8,8.5,22.99,8.5,35.89,0,44.15-35.92,80.06-80.06,80.06-9.4,0-18.44-1.63-26.83-4.62-1.9,9.58-7.63,17.78-15.53,22.93,13,5.62,27.32,8.74,42.36,8.74,59.06,0,107.11-48.05,107.11-107.11,0-20.77-5.94-40.18-16.23-56.63Z"/>
        <path class="cls-2" d="M321.83,607.46c0,.42-.01.84-.04,1.26-.6,10.41-8.54,18.84-18.73,20.21-.95.13-1.92.19-2.9.19-11.97,0-21.66-9.7-21.66-21.66,0-.22,0-.44.01-.66.31-10.48,8.06-19.08,18.15-20.72,1.14-.19,2.31-.28,3.5-.28,11.96,0,21.66,9.7,21.66,21.66Z"/>
        <path class="cls-2" d="M440.51,470.69c0,9.6-6.24,17.74-14.88,20.58-2.13.7-4.41,1.08-6.78,1.08-11.97,0-21.66-9.7-21.66-21.66,0-1.03.07-2.04.21-3.02,1.47-10.53,10.51-18.63,21.45-18.63.13,0,.26,0,.39,0,10.36.18,18.95,7.63,20.87,17.47h0c.26,1.36.4,2.75.4,4.18Z"/>
        <g>
          <path class="cls-2" d="M502.91,429.31c-3.2,9.05-9.96,16.41-18.58,20.43,18.37,25.13,29.23,56.08,29.23,89.52,0,83.81-68.18,151.99-151.99,151.99-28.09,0-54.42-7.66-77.02-21-2.56,9.22-8.71,16.93-16.87,21.53,27.94,17.27,60.2,26.51,93.88,26.51,47.82,0,92.78-18.62,126.6-52.44,33.81-33.81,52.44-78.77,52.44-126.6,0-40.34-13.25-78.65-37.7-109.95ZM361.57,387.27c26.75,0,51.91,6.95,73.77,19.14h0c2.96-9.16,9.53-16.7,18.03-20.94-27.46-16.45-58.95-25.24-91.8-25.24-47.82,0-92.78,18.62-126.6,52.44-33.81,33.81-52.44,78.77-52.44,126.6,0,38.94,12.35,75.97,35.18,106.64,3.91-8.58,11.12-15.33,20.01-18.63-17.72-24.85-28.15-55.24-28.15-88.01,0-83.81,68.18-151.99,151.99-151.99Z"/>
          <path class="cls-2" d="M272.95,660.98c0,.55-.02,1.1-.06,1.64-.71,10.12-7.9,18.45-17.46,20.86-1.82.46-3.73.7-5.69.7-12.82,0-23.2-10.39-23.2-23.2,0-1.29.1-2.56.31-3.8,1.62-9.85,9.44-17.6,19.31-19.13,1.16-.18,2.36-.27,3.58-.27,12.82,0,23.2,10.39,23.2,23.2Z"/>
          <path class="cls-2" d="M492.49,417.13v.26c0,10.41-6.85,19.22-16.3,22.16-2.18.68-4.5,1.04-6.9,1.04-12.82,0-23.2-10.39-23.2-23.2,0-1.42.13-2.8.38-4.15,1.8-10.02,10.04-17.8,20.29-18.91.83-.09,1.68-.14,2.53-.14,12.73,0,23.06,10.24,23.2,22.94Z"/>
        </g>
      </g>
    </g>
  </g>
</svg>