<?xml version="1.0" encoding="UTF-8"?>
<svg version="1.1" xmlns="http://www.w3.org/2000/svg" width="434" height="401">
<path d="M0 0 C143.22 0 286.44 0 434 0 C434 132.33 434 264.66 434 401 C290.78 401 147.56 401 0 401 C0 268.67 0 136.34 0 0 Z " fill="#FEFEFE" transform="translate(0,0)"/>
<path d="M0 0 C3.96464926 1.32154975 5.24096255 3.77296502 7.4375 7.125 C7.86708008 7.77734619 8.29666016 8.42969238 8.73925781 9.10180664 C28.62947435 40.09229949 38.44865065 72.75138752 38.375 109.5625 C38.37567978 110.88536514 38.37567978 110.88536514 38.37637329 112.23495483 C38.35627529 125.5529806 37.50768732 138.09429384 34 151 C33.773125 151.99644531 33.54625 152.99289063 33.3125 154.01953125 C29.71316575 169.02425588 23.38138117 183.50380378 16 197 C15.49412354 197.93489258 15.49412354 197.93489258 14.97802734 198.88867188 C7.56077697 212.42066544 -1.97722254 224.2356967 -13 235 C-14.28390625 236.29164063 -14.28390625 236.29164063 -15.59375 237.609375 C-38.21431125 260.08304948 -66.89118447 276.56447433 -98.0625 283.75 C-99.35414063 284.04801514 -99.35414063 284.04801514 -100.671875 284.35205078 C-113.78155861 287.21060847 -126.80047286 288.38365056 -140.1875 288.3125 C-140.90577972 288.31067719 -141.62405945 288.30885437 -142.36410522 288.30697632 C-154.13347366 288.25692443 -165.47639428 287.48325935 -177 285 C-177.7955127 284.83902832 -178.59102539 284.67805664 -179.41064453 284.51220703 C-198.11260084 280.66082493 -217.13826241 273.82544121 -233 263 C-233.33 262.34 -233.66 261.68 -234 261 C-233.40832031 260.5875 -232.81664062 260.175 -232.20703125 259.75 C-225.15427722 254.59562185 -220.85623556 249.30904889 -218 241 C-215.22537691 241.61747725 -212.82753102 242.45723775 -210.27734375 243.70703125 C-209.5802832 244.04436279 -208.88322266 244.38169434 -208.16503906 244.72924805 C-207.42995117 245.08672119 -206.69486328 245.44419434 -205.9375 245.8125 C-185.97245699 255.29820135 -165.55532406 260.1878522 -143.4387207 260.18530273 C-141.33458848 260.18747717 -139.23099222 260.20564963 -137.12695312 260.22460938 C-98.07249387 260.38935858 -60.06087439 242.97796322 -32.375 215.8125 C-17.44303106 200.710901 -6.70439035 182.69898056 1 163 C1.67869141 161.28876953 1.67869141 161.28876953 2.37109375 159.54296875 C8.30518057 143.85373623 10.18724726 128.14549643 10.18530273 111.47314453 C10.18747397 109.3998512 10.20564569 107.32710492 10.22460938 105.25390625 C10.28016174 92.51254084 9.05092408 80.08897202 5.4375 67.8125 C5.1806543 66.93376221 4.92380859 66.05502441 4.65917969 65.1496582 C0.13329816 50.32144111 -6.58998095 36.89058402 -15.12890625 23.9921875 C-17 21 -17 21 -17 19 C-15.49479619 17.9261293 -13.9437365 16.91622499 -12.375 15.9375 C-6.32733553 11.84567595 -2.3199247 6.95977411 0 0 Z " fill="#02BF54" transform="translate(354,97)"/>
<path d="M0 0 C0.67659668 0.33306152 1.35319336 0.66612305 2.05029297 1.00927734 C5.18969365 2.60832164 7.91227224 4.08053507 10.1875 6.8125 C9.67960937 7.16441406 9.17171875 7.51632813 8.6484375 7.87890625 C1.32036497 13.13480846 -3.67975963 18.28448456 -6.8125 26.8125 C-11.15009758 25.46178743 -15.27286974 23.79885202 -19.43432617 21.99487305 C-56.72612615 5.8389477 -97.95413258 4.03443637 -136.140625 18.8203125 C-152.82641929 25.57812677 -167.00561492 34.33256685 -180.8125 45.8125 C-181.6065625 46.46347656 -182.400625 47.11445312 -183.21875 47.78515625 C-187.90601075 51.742286 -191.90439908 56.09344657 -195.8125 60.8125 C-196.42738281 61.52792969 -197.04226562 62.24335937 -197.67578125 62.98046875 C-211.75428066 79.82388388 -221.88051688 99.7428096 -227.8125 120.8125 C-228.02422852 121.53759766 -228.23595703 122.26269531 -228.45410156 123.00976562 C-238.52865154 158.86941578 -231.61026112 200.90280676 -213.80029297 233.06933594 C-211.6112813 236.93229771 -209.37583556 240.76453504 -207.0625 244.5546875 C-205.8125 246.8125 -205.8125 246.8125 -205.8125 248.8125 C-207.295838 249.74965922 -208.8269669 250.61157474 -210.375 251.4375 C-214.93922442 254.06871719 -218.05611225 256.88992361 -221.33984375 260.98046875 C-222.73602907 262.71736773 -224.20968985 264.26710395 -225.8125 265.8125 C-237.01751407 251.40169172 -244.58829992 235.91844079 -250.8125 218.8125 C-251.19148438 217.78455322 -251.19148438 217.78455322 -251.578125 216.73583984 C-253.23674363 212.15275407 -254.60595218 207.53395993 -255.8125 202.8125 C-256.10664795 201.69053223 -256.10664795 201.69053223 -256.40673828 200.54589844 C-259.83969677 186.76353854 -260.20744188 172.99844357 -260.25 158.875 C-260.2561734 158.00199249 -260.2623468 157.12898499 -260.26870728 156.22952271 C-260.32104753 144.71399141 -259.38821373 134.05117891 -256.8125 122.8125 C-256.61922119 121.92119385 -256.42594238 121.0298877 -256.22680664 120.11157227 C-249.00040291 87.93048549 -232.91695928 60.02900317 -210.8125 35.8125 C-210.06613281 34.99394531 -209.31976563 34.17539063 -208.55078125 33.33203125 C-202.24945544 26.75116419 -195.07885026 21.2725873 -187.8125 15.8125 C-186.96816406 15.173125 -186.12382812 14.53375 -185.25390625 13.875 C-168.22407966 1.46878569 -148.88154962 -7.106416 -128.8125 -13.1875 C-127.81089844 -13.49558594 -126.80929688 -13.80367187 -125.77734375 -14.12109375 C-83.96752302 -25.73159073 -38.51391915 -18.97396107 0 0 Z " fill="#02BF54" transform="translate(294.8125,46.1875)"/>
<path d="M0 0 C11.29912275 9.26387704 15.49186246 32.2287239 17 46 C18.74310424 76.43328317 9.90729376 104.88693676 -10.27856445 128.00024414 C-23.0671643 142.08317972 -38.1897064 151.5216834 -56 158 C-56.81082031 158.31839844 -57.62164062 158.63679687 -58.45703125 158.96484375 C-79.53185344 166.82391473 -108.07562611 165.64308298 -128.625 156.75 C-129.73875 156.1725 -130.8525 155.595 -132 155 C-131.13375 154.030625 -130.2675 153.06125 -129.375 152.0625 C-124.12913118 145.90917046 -119.70266307 140.00251643 -118 132 C-117.3709375 132.13277344 -116.741875 132.26554688 -116.09375 132.40234375 C-115.2378125 132.57894531 -114.381875 132.75554687 -113.5 132.9375 C-112.6646875 133.11152344 -111.829375 133.28554688 -110.96875 133.46484375 C-88.57979469 137.50074754 -66.11314338 135.23503863 -46.6484375 122.87109375 C-43.35200813 120.50966743 -40.14787187 118.19357169 -37.33203125 115.265625 C-36 114 -36 114 -34 114 C-33.73445313 113.40832031 -33.46890625 112.81664062 -33.1953125 112.20703125 C-31.96920817 109.9431458 -30.67759885 108.5110593 -28.875 106.6875 C-13.24524307 89.16520465 -11.05037457 66.86684617 -11.75146484 44.38720703 C-12.26302504 37.41531487 -14.43859851 31.45809097 -17 25 C-17.37601026 23.34243999 -17.72718816 21.67763601 -18 20 C-17.41992188 19.57589844 -16.83984375 19.15179688 -16.2421875 18.71484375 C-9.12280854 13.36943546 -3.62797378 8.26371805 0 0 Z " fill="#03BF55" transform="translate(304,150)"/>
<path d="M0 0 C0 0.66 0 1.32 0 2 C-1.57421875 3.48046875 -1.57421875 3.48046875 -3.6875 5.1875 C-9.71188281 10.32844858 -13.15318518 15.6582144 -16 23 C-23.46275395 22.0993228 -23.46275395 22.0993228 -26.7890625 21.484375 C-48.86795746 18.15373878 -69.51430204 24.57271574 -87.4375 37.375 C-102.52266858 49.33698753 -113.85474042 66.78226613 -117 86 C-117.27850503 90.31610834 -117.27953032 94.61376918 -117.25 98.9375 C-117.25773437 100.06607422 -117.26546875 101.19464844 -117.2734375 102.35742188 C-117.25248179 111.3631371 -115.85240983 118.95739572 -112.875 127.4375 C-111 132.79562044 -111 132.79562044 -111 135 C-111.6290625 135.268125 -112.258125 135.53625 -112.90625 135.8125 C-120.63368636 139.35036243 -126.26810728 143.90216092 -131 151 C-131.66 151 -132.32 151 -133 151 C-136.6145726 143.85780328 -139.56490755 136.79647886 -141.8125 129.125 C-142.0189917 128.4244751 -142.2254834 127.7239502 -142.43823242 127.00219727 C-144.89955441 118.2929836 -145.18253867 109.88477347 -145.1875 100.875 C-145.20586914 99.15410156 -145.20586914 99.15410156 -145.22460938 97.3984375 C-145.27287083 68.82765344 -133.7317951 44.17243778 -114.125 23.75 C-84.29190887 -4.83812442 -38.86446619 -16.53628475 0 0 Z " fill="#02BF54" transform="translate(252,106)"/>
<path d="M0 0 C1.921875 0.1953125 1.921875 0.1953125 4 1 C5.203125 2.6171875 5.203125 2.6171875 6.25 4.875 C6.88421875 6.21304688 6.88421875 6.21304688 7.53125 7.578125 C8.67461814 10.24192948 9.74402553 12.90424084 10.78125 15.609375 C15.76688142 28.45210911 19.92128935 35.48225335 32.9375 41.25 C35.28401872 42.18607071 37.63794237 43.10386262 40 44 C41.87642712 44.72548624 43.75161443 45.45419546 45.625 46.1875 C46.75808594 46.61095703 46.75808594 46.61095703 47.9140625 47.04296875 C50.21165618 48.09710817 52.03384767 49.4208505 54 51 C53.94921875 52.79296875 53.94921875 52.79296875 53 55 C50.59097806 56.29996278 48.34578976 57.32303849 45.8125 58.3125 C44.35052588 58.92199861 42.88960609 59.53403161 41.4296875 60.1484375 C40.68944336 60.45620117 39.94919922 60.76396484 39.18652344 61.08105469 C28.61358548 65.52461637 19.39032816 69.44293265 14.46484375 80.421875 C13.42170956 82.98096898 12.4400375 85.55989892 11.47265625 88.1484375 C10.10006661 91.80439198 8.55456839 95.34748543 6.875 98.875 C6.41867188 99.84179688 5.96234375 100.80859375 5.4921875 101.8046875 C4 104 4 104 1.8203125 104.8203125 C0.91925781 104.90925781 0.91925781 104.90925781 0 105 C-3.06689299 99.15985272 -5.92674654 93.36239491 -8.26123047 87.19555664 C-12.68909225 75.53474021 -16.6326285 69.87184871 -28.25390625 64.59375 C-32.83720192 62.60277303 -37.51172808 60.86128891 -42.19921875 59.1328125 C-45.53501313 57.78360696 -48.16147014 56.18972304 -51 54 C-50.7578125 52.1484375 -50.7578125 52.1484375 -50 50 C-48.2421875 48.7265625 -48.2421875 48.7265625 -45.875 47.625 C-44.98039063 47.20605469 -44.08578125 46.78710938 -43.1640625 46.35546875 C-38.32999898 44.28457981 -33.43524241 42.38506539 -28.515625 40.52734375 C-16.00562361 35.09244315 -11.78483912 26.19939114 -6.6875 14.125 C-5.63290014 11.66753266 -4.57207347 9.21280779 -3.51171875 6.7578125 C-3.05240967 5.6764502 -2.59310059 4.59508789 -2.11987305 3.48095703 C-1 1 -1 1 0 0 Z " fill="#02BF54" transform="translate(212,154)"/>
<path d="M0 0 C4.57331815 3.15401252 8.22917185 7.36227141 10.265625 12.5625 C11.09668485 19.42673472 11.56770828 26.55465151 7.828125 32.625 C3.27486649 38.19009373 -1.09580141 42.02258263 -8.3671875 43.1015625 C-15.00364813 43.35224392 -20.69544386 43.27757434 -26.08984375 39.1171875 C-32.25290927 33.29082152 -35.64212688 28.51938581 -36.171875 19.8125 C-36.00027259 13.10991191 -33.62069898 7.37899356 -28.796875 2.671875 C-19.56805455 -4.52940157 -10.42478238 -5.76969088 0 0 Z " fill="#03BF55" transform="translate(333.734375,64.4375)"/>
<path d="M0 0 C5.76442481 3.44162916 10.37702499 9.12390553 12.5625 15.4375 C13.70894486 23.48809054 12.17063537 29.74905155 7.5625 36.4375 C5.65579199 38.56912799 3.98706456 39.80462999 1.5625 41.4375 C0.716875 42.035625 -0.12875 42.63375 -1 43.25 C-7.34416031 45.44161902 -13.97899663 45.71340733 -20.328125 43.37109375 C-27.16364484 39.61565096 -30.98889648 34.78331057 -33.4375 27.4375 C-34.30978783 19.56482628 -34.01219209 13.21482809 -29.38671875 6.60546875 C-21.72799991 -1.91274559 -10.72746573 -4.69711214 0 0 Z " fill="#02BF54" transform="translate(112.4375,306.5625)"/>
<path d="M0 0 C5.47441041 2.43664934 9.3100478 6.54193025 12.7421875 11.38671875 C14.80169363 17.56523715 14.96747565 24.98206432 12.75390625 31.1328125 C9.18953295 37.08682199 4.35699169 40.43297911 -2.2578125 42.38671875 C-8.53162746 43.45007722 -13.67905048 43.23129622 -19.1953125 39.88671875 C-24.40981874 35.89303158 -27.95752134 30.86267866 -29.2578125 24.38671875 C-29.98433627 17.36365567 -28.44369328 12.1375045 -24.2578125 6.38671875 C-16.94537933 0.14593526 -9.57421885 -2.60060962 0 0 Z " fill="#03BF55" transform="translate(278.2578125,116.61328125)"/>
<path d="M0 0 C6.60286488 2.88078661 10.88234582 8.8654458 13.6484375 15.3828125 C14.7132568 22.73974582 12.80085617 28.82304316 9.0234375 35.0703125 C3.86993246 40.08819899 -1.1538992 42.68656634 -8.4140625 43.0078125 C-15.07999374 42.70250267 -19.17482404 40.4864291 -23.87890625 35.890625 C-29.26345786 29.86617015 -29.80979645 24.29306239 -29.66015625 16.4765625 C-29.01248374 9.98344061 -24.84011878 6.65950099 -20.1328125 2.6796875 C-14.12688148 -1.69305175 -7.11642893 -1.86776706 0 0 Z " fill="#02BF54" transform="translate(160.3515625,253.6171875)"/>
</svg>
